<svg width="92" height="34" viewBox="0 0 92 34" fill="none" xmlns="http://www.w3.org/2000/svg">
<path d="M31.1905 19.6671V8.58341H35.7196V19.3116L42.1168 17.2473L34.5474 0L0 1.93408L6.7694 18.959V8.43565H11.2985H11.53C12.0692 8.45613 12.793 8.51612 13.4846 8.58341C16.544 8.8804 17.8569 10.5204 17.8569 12.7003C17.8569 14.8802 14.9865 16.371 12.1908 16.371C11.8714 16.371 11.5739 16.3636 11.2985 16.3505V19.6656H7.05073L10.1849 27.5512L34.6133 19.6656H31.1905V19.6671ZM29.5568 16.5582V19.1009C20.1646 21.5061 18.3082 16.8069 18.3082 13.7332C18.3082 10.6565 21.6562 7.00776 29.5026 8.93161L29.5568 11.6806C23.9435 10.2366 23.1229 13.047 23.1229 14.1253C23.1229 15.2035 24.2248 18.346 29.5568 16.5582ZM33.5496 2.21059C35.05 2.21059 36.2691 3.42488 36.2691 4.92592C36.2691 6.42403 35.0514 7.63978 33.5496 7.63978C32.0492 7.63978 30.8301 6.42549 30.8301 4.92592C30.8301 3.42488 32.0477 2.21059 33.5496 2.21059Z" fill="#2C6F76"/>
<path d="M13.6037 12.3404C13.6037 11.5767 13.1436 11.0617 12.0711 10.9564C11.8293 10.933 11.5743 10.911 11.3853 10.9052H11.3047H11.1113V13.6907C11.2681 13.6922 11.5304 13.6878 11.6183 13.6878C12.5985 13.6878 13.6037 13.1055 13.6037 12.3404Z" fill="#2C6F76"/>
<path d="M45.941 12.6799C46.1754 12.8233 46.5153 12.9433 46.8758 12.9433C47.4091 12.9433 47.7212 12.6624 47.7212 12.2557C47.7212 11.8782 47.5058 11.6631 46.9608 11.4539C46.3014 11.2213 45.8941 10.8804 45.8941 10.3113C45.8941 9.6837 46.4157 9.217 47.2011 9.217C47.6143 9.217 47.9132 9.3121 48.0934 9.41451L47.9483 9.83878C47.8165 9.76709 47.5483 9.64712 47.182 9.64712C46.6311 9.64712 46.4216 9.9763 46.4216 10.2513C46.4216 10.6288 46.6677 10.8131 47.2245 11.0297C47.9073 11.293 48.2546 11.6222 48.2546 12.2132C48.2546 12.835 47.7945 13.3734 46.8421 13.3734C46.4523 13.3734 46.0274 13.2593 45.8105 13.1174L45.941 12.6799Z" fill="#2C6F76"/>
<path d="M49.2404 11.9617C49.2521 12.6728 49.7078 12.9668 50.2338 12.9668C50.6118 12.9668 50.8389 12.901 51.0368 12.8176L51.1276 13.1936C50.9415 13.277 50.6236 13.3735 50.162 13.3735C49.2697 13.3735 48.7363 12.7869 48.7363 11.9149C48.7363 11.0415 49.2521 10.3539 50.0961 10.3539C51.0426 10.3539 51.2946 11.1849 51.2946 11.7174C51.2946 11.8257 51.2815 11.9091 51.2756 11.9632H49.2404V11.9617ZM50.7847 11.5857C50.7906 11.2507 50.647 10.7299 50.0536 10.7299C49.5202 10.7299 49.2873 11.22 49.2448 11.5857H50.7847Z" fill="#2C6F76"/>
<path d="M54.0114 13.207C53.8736 13.2787 53.5689 13.3738 53.1791 13.3738C52.3044 13.3738 51.7344 12.7813 51.7344 11.8962C51.7344 11.0052 52.3468 10.3586 53.2919 10.3586C53.604 10.3586 53.8795 10.4361 54.0231 10.5078L53.9029 10.9145C53.7784 10.8428 53.5806 10.777 53.2919 10.777C52.6267 10.777 52.2677 11.2671 52.2677 11.8713C52.2677 12.5414 52.7 12.9539 53.2743 12.9539C53.5733 12.9539 53.7711 12.8764 53.9205 12.8106L54.0114 13.207Z" fill="#2C6F76"/>
<path d="M57.0554 12.525C57.0554 12.8234 57.0612 13.0867 57.0788 13.315H56.6114L56.5821 12.8424H56.5704C56.4326 13.0765 56.1279 13.3808 55.6121 13.3808C55.1564 13.3808 54.6113 13.1292 54.6113 12.1124V10.4182H55.1388V12.0217C55.1388 12.5718 55.3059 12.9434 55.785 12.9434C56.1381 12.9434 56.3843 12.6976 56.481 12.465C56.5103 12.3874 56.5279 12.2909 56.5279 12.1958V10.4182H57.0554V12.525Z" fill="#2C6F76"/>
<path d="M57.9258 11.3224C57.9258 10.9815 57.9199 10.6889 57.9023 10.4197H58.3639L58.3829 10.9888H58.4064C58.5383 10.5997 58.8562 10.3539 59.2093 10.3539C59.2694 10.3539 59.3104 10.3598 59.3588 10.3729V10.8689C59.3046 10.8572 59.2504 10.8513 59.18 10.8513C58.8079 10.8513 58.5441 11.1322 58.4723 11.5272C58.4591 11.5989 58.4489 11.6838 58.4489 11.773V13.3135H57.9273V11.3224H57.9258Z" fill="#2C6F76"/>
<path d="M60.4723 9.60656C60.4797 9.78651 60.3478 9.92989 60.1368 9.92989C59.9507 9.92989 59.8203 9.78651 59.8203 9.60656C59.8203 9.42076 59.958 9.27739 60.15 9.27739C60.3478 9.27739 60.4723 9.42076 60.4723 9.60656ZM59.8862 13.3138V10.4185H60.4137V13.3138H59.8862Z" fill="#2C6F76"/>
<path d="M61.9207 9.58711V10.4181H62.6753V10.819H61.9207V12.38C61.9207 12.7384 62.0232 12.9418 62.3163 12.9418C62.454 12.9418 62.5551 12.9242 62.6211 12.9052L62.6445 13.3002C62.5419 13.3426 62.3808 13.3719 62.1771 13.3719C61.9309 13.3719 61.7331 13.2944 61.6071 13.151C61.4562 12.9959 61.4034 12.7384 61.4034 12.3975V10.8204H60.9551V10.4196H61.4034V9.7261L61.9207 9.58711Z" fill="#2C6F76"/>
<path d="M63.5739 10.418L64.2083 12.1283C64.2743 12.3199 64.3461 12.5467 64.3944 12.7208H64.4061C64.4604 12.5467 64.5204 12.3258 64.5922 12.1166L65.1666 10.418H65.7249L64.9336 12.4823C64.5556 13.4757 64.2977 13.9834 63.9387 14.295C63.6823 14.5217 63.4244 14.6124 63.2926 14.6359L63.1607 14.1926C63.2926 14.1501 63.4655 14.0667 63.6222 13.9351C63.7658 13.821 63.9461 13.6176 64.0647 13.3499C64.0882 13.2957 64.1058 13.2548 64.1058 13.2241C64.1058 13.1948 64.094 13.1524 64.0706 13.0865L62.998 10.4195H63.5739V10.418Z" fill="#2C6F76"/>
<path d="M45.941 19.0291C46.1754 19.1725 46.5153 19.2924 46.8758 19.2924C47.4091 19.2924 47.7212 19.0115 47.7212 18.6048C47.7212 18.2274 47.5058 18.0123 46.9608 17.8031C46.3014 17.5705 45.8941 17.2296 45.8941 16.6605C45.8941 16.0329 46.4157 15.5662 47.2011 15.5662C47.6143 15.5662 47.9132 15.6613 48.0934 15.7637L47.9483 16.188C47.8165 16.1163 47.5483 15.9963 47.182 15.9963C46.6311 15.9963 46.4216 16.3255 46.4216 16.6005C46.4216 16.978 46.6677 17.1623 47.2245 17.3788C47.9073 17.6422 48.2546 17.9713 48.2546 18.5639C48.2546 19.1856 47.7945 19.724 46.8421 19.724C46.4523 19.724 46.0274 19.6099 45.8105 19.468L45.941 19.0291Z" fill="#2C6F76"/>
<path d="M49.5808 15.9366V16.7676H50.3354V17.1684H49.5808V18.7295C49.5808 19.0879 49.6834 19.2913 49.9764 19.2913C50.1142 19.2913 50.2153 19.2737 50.2812 19.2547L50.3047 19.6497C50.2021 19.6921 50.0409 19.7214 49.8372 19.7214C49.5911 19.7214 49.3933 19.6438 49.2673 19.5005C49.1163 19.3454 49.0636 19.0879 49.0636 18.747V17.1684H48.6152V16.7676H49.0636V16.0741L49.5808 15.9366Z" fill="#2C6F76"/>
<path d="M52.5337 19.6629L52.4912 19.2972H52.4722C52.311 19.5254 51.9989 19.7288 51.5857 19.7288C50.9996 19.7288 50.6992 19.3162 50.6992 18.8978C50.6992 18.1985 51.3219 17.8152 52.4414 17.821V17.761C52.4414 17.5211 52.3755 17.091 51.782 17.091C51.5124 17.091 51.2311 17.1744 51.0274 17.306L50.9073 16.9593C51.1476 16.8042 51.4948 16.7018 51.8597 16.7018C52.7462 16.7018 52.9615 17.306 52.9615 17.8869V18.9695C52.9615 19.2211 52.9747 19.4669 53.0099 19.6629H52.5337ZM52.456 18.1853C51.8817 18.1736 51.2282 18.2746 51.2282 18.8378C51.2282 19.1787 51.4553 19.3396 51.7249 19.3396C52.1029 19.3396 52.3418 19.1011 52.4267 18.8554C52.4443 18.8012 52.456 18.7413 52.456 18.6886V18.1853Z" fill="#2C6F76"/>
<path d="M53.8145 17.5518C53.8145 17.2534 53.8086 17.0076 53.791 16.7677H54.2584L54.2877 17.2461H54.3009C54.4445 16.971 54.7801 16.7018 55.2592 16.7018C55.6592 16.7018 56.2834 16.9418 56.2834 17.9351V19.6629H55.7559V17.9937C55.7559 17.527 55.583 17.1378 55.0848 17.1378C54.7376 17.1378 54.468 17.3836 54.3786 17.6762C54.3551 17.742 54.3419 17.8313 54.3419 17.922V19.6629H53.8145V17.5518Z" fill="#2C6F76"/>
<path d="M59.6409 15.4157V18.9152C59.6409 19.1727 59.6482 19.4653 59.6644 19.6628H59.1911L59.1676 19.1595H59.1559C58.9947 19.4829 58.6402 19.7286 58.1669 19.7286C57.465 19.7286 56.9258 19.1361 56.9258 18.2569C56.92 17.2942 57.5192 16.7017 58.227 16.7017C58.6695 16.7017 58.9698 16.9109 59.1017 17.145H59.1134V15.4157H59.6409ZM59.1134 17.9467C59.1134 17.8809 59.1076 17.7916 59.09 17.7258C59.0123 17.3908 58.7251 17.1157 58.3295 17.1157C57.7845 17.1157 57.4606 17.5941 57.4606 18.2335C57.4606 18.8201 57.7478 19.3044 58.3163 19.3044C58.6695 19.3044 58.9933 19.0718 59.0885 18.6767C59.1076 18.6051 59.112 18.5334 59.112 18.4485V17.9467H59.1134Z" fill="#2C6F76"/>
<path d="M62.1177 19.6629L62.0752 19.2972H62.0561C61.895 19.5254 61.5829 19.7288 61.1697 19.7288C60.5836 19.7288 60.2832 19.3162 60.2832 18.8978C60.2832 18.1985 60.9059 17.8152 62.0254 17.821V17.761C62.0254 17.5211 61.9594 17.091 61.366 17.091C61.0964 17.091 60.8151 17.1744 60.6114 17.306L60.4913 16.9593C60.7316 16.8042 61.0788 16.7018 61.4437 16.7018C62.3301 16.7018 62.5455 17.306 62.5455 17.8869V18.9695C62.5455 19.2211 62.5587 19.4669 62.5939 19.6629H62.1177ZM62.04 18.1853C61.4657 18.1736 60.8122 18.2746 60.8122 18.8378C60.8122 19.1787 61.0393 19.3396 61.3089 19.3396C61.6869 19.3396 61.9257 19.1011 62.0107 18.8554C62.0283 18.8012 62.04 18.7413 62.04 18.6886V18.1853Z" fill="#2C6F76"/>
<path d="M63.4004 17.6719C63.4004 17.331 63.3945 17.0384 63.377 16.7692H63.8385L63.8576 17.3383H63.881C64.0129 16.9492 64.3308 16.7034 64.6839 16.7034C64.744 16.7034 64.7865 16.7092 64.8334 16.7224V17.2184C64.7792 17.2067 64.725 17.2008 64.6546 17.2008C64.2825 17.2008 64.0202 17.4817 63.9469 17.8767C63.9337 17.9484 63.9235 18.0333 63.9235 18.1225V19.666H63.4019V17.6719H63.4004Z" fill="#2C6F76"/>
<path d="M67.8616 15.4157V18.9152C67.8616 19.1727 67.8689 19.4653 67.8851 19.6628H67.4118L67.3883 19.1595H67.3766C67.2154 19.4829 66.8609 19.7286 66.3876 19.7286C65.6857 19.7286 65.1465 19.1361 65.1465 18.2569C65.1407 17.2942 65.7399 16.7017 66.4477 16.7017C66.8902 16.7017 67.1905 16.9109 67.3224 17.145H67.3341V15.4157H67.8616ZM67.3341 17.9467C67.3341 17.8809 67.3283 17.7916 67.3107 17.7258C67.233 17.3908 66.9458 17.1157 66.5502 17.1157C66.0066 17.1157 65.6828 17.5941 65.6828 18.2335C65.6828 18.8201 65.97 19.3044 66.5385 19.3044C66.8916 19.3044 67.2154 19.0718 67.3107 18.6767C67.3297 18.6051 67.3341 18.5334 67.3341 18.4485V17.9467Z" fill="#2C6F76"/>
<path d="M68.6602 19.1245C68.817 19.2254 69.0924 19.3337 69.3562 19.3337C69.7401 19.3337 69.9188 19.142 69.9188 18.9021C69.9188 18.6505 69.7694 18.5129 69.3811 18.3696C68.8595 18.1838 68.6148 17.897 68.6148 17.5503C68.6148 17.0836 68.9913 16.7003 69.6141 16.7003C69.9086 16.7003 70.165 16.7851 70.3262 16.8802L70.1943 17.2635C70.08 17.1918 69.8719 17.0953 69.6023 17.0953C69.2902 17.0953 69.1173 17.2752 69.1173 17.4903C69.1173 17.7302 69.2902 17.837 69.6683 17.9804C70.1709 18.1721 70.4287 18.4222 70.4287 18.8538C70.4287 19.3615 70.0331 19.7214 69.3445 19.7214C69.028 19.7214 68.7335 19.6438 68.5312 19.5239L68.6602 19.1245Z" fill="#2C6F76"/>
<path d="M75.9276 19.5308C75.7356 19.6259 75.3532 19.7225 74.8609 19.7225C73.7224 19.7225 72.8652 19.0056 72.8652 17.683C72.8652 16.4205 73.7209 15.5661 74.9737 15.5661C75.4763 15.5661 75.7942 15.6743 75.932 15.746L75.806 16.1703C75.6082 16.0752 75.3268 16.0035 74.9928 16.0035C74.0462 16.0035 73.4162 16.6077 73.4162 17.6669C73.4162 18.6545 73.9861 19.2879 74.9679 19.2879C75.2843 19.2879 75.6082 19.2221 75.8192 19.1212L75.9276 19.5308Z" fill="#2C6F76"/>
<path d="M79.1184 18.1912C79.1184 19.2621 78.3756 19.7288 77.6737 19.7288C76.8883 19.7288 76.2832 19.1553 76.2832 18.2394C76.2832 17.2709 76.9177 16.7018 77.7221 16.7018C78.5543 16.7018 79.1184 17.306 79.1184 18.1912ZM76.818 18.2219C76.818 18.8554 77.1829 19.3338 77.6986 19.3338C78.2012 19.3338 78.5792 18.8612 78.5792 18.2087C78.5792 17.7186 78.3331 17.0954 77.7103 17.0954C77.0876 17.0968 76.818 17.6718 76.818 18.2219Z" fill="#2C6F76"/>
<path d="M82.2077 18.873C82.2077 19.1714 82.2136 19.4348 82.2311 19.663H81.7637L81.7344 19.1904H81.7227C81.585 19.4231 81.2802 19.7288 80.7644 19.7288C80.3087 19.7288 79.7637 19.4772 79.7637 18.4604V16.7677H80.2912V18.3712C80.2912 18.9213 80.4582 19.2914 80.9373 19.2914C81.2905 19.2914 81.5366 19.0456 81.6333 18.813C81.6626 18.7355 81.6802 18.6389 81.6802 18.5438V16.7677H82.2077V18.873Z" fill="#2C6F76"/>
<path d="M83.0801 17.5518C83.0801 17.2534 83.0742 17.0076 83.0566 16.7677H83.5241L83.5534 17.2461H83.5665C83.7101 16.971 84.0457 16.7018 84.5248 16.7018C84.9248 16.7018 85.549 16.9418 85.549 17.9351V19.6629H85.0215V17.9937C85.0215 17.527 84.8472 17.1378 84.3504 17.1378C84.0032 17.1378 83.7336 17.3836 83.6442 17.6762C83.6208 17.742 83.6076 17.8313 83.6076 17.922V19.6629H83.0801V17.5518Z" fill="#2C6F76"/>
<path d="M88.4703 19.5544C88.3326 19.6261 88.0278 19.7212 87.6381 19.7212C86.7633 19.7212 86.1934 19.1287 86.1934 18.2436C86.1934 17.3526 86.8058 16.706 87.7509 16.706C88.063 16.706 88.3385 16.7835 88.4821 16.8552L88.3619 17.2619C88.2374 17.1902 88.0396 17.1244 87.7509 17.1244C87.0857 17.1244 86.7267 17.6145 86.7267 18.2202C86.7267 18.8902 87.159 19.3028 87.7333 19.3028C88.0322 19.3028 88.23 19.2253 88.3795 19.1594L88.4703 19.5544Z" fill="#2C6F76"/>
<path d="M89.6716 15.954C89.6789 16.1339 89.547 16.2773 89.336 16.2773C89.1499 16.2773 89.0195 16.1339 89.0195 15.954C89.0195 15.7682 89.1573 15.6248 89.3492 15.6248C89.5456 15.6263 89.6716 15.7682 89.6716 15.954ZM89.084 19.6627V16.7674H89.6115V19.6627H89.084Z" fill="#2C6F76"/>
<path d="M90.4863 15.4157H91.0138V19.6628H90.4863V15.4157Z" fill="#2C6F76"/>
<path d="M91.3757 10.44C91.3757 11.1291 90.8335 11.6704 90.1273 11.6704C89.4298 11.6704 88.873 11.1291 88.873 10.44C88.873 9.76558 89.4298 9.22427 90.1273 9.22427C90.8335 9.22427 91.3757 9.76558 91.3757 10.44ZM89.1851 10.44C89.1851 10.9813 89.5852 11.4114 90.1361 11.4114C90.6709 11.4114 91.0636 10.9813 91.0636 10.4488C91.0636 9.90749 90.6709 9.47005 90.1288 9.47005C89.5866 9.46859 89.1851 9.90602 89.1851 10.44ZM89.9353 11.0779H89.6526V9.86213C89.7639 9.84019 89.9207 9.82556 90.1214 9.82556C90.3515 9.82556 90.4555 9.86213 90.5449 9.9148C90.6108 9.96747 90.6636 10.0626 90.6636 10.1825C90.6636 10.3157 90.5595 10.4195 90.4115 10.4634V10.4781C90.5302 10.5234 90.5976 10.6112 90.6343 10.775C90.6724 10.9608 90.6943 11.034 90.7236 11.0793H90.4189C90.3808 11.0355 90.3588 10.9243 90.3222 10.7824C90.2987 10.6492 90.2255 10.5892 90.0702 10.5892H89.9353V11.0779ZM89.9441 10.3888H90.0775C90.2343 10.3888 90.3603 10.3361 90.3603 10.2118C90.3603 10.1006 90.2782 10.026 90.1009 10.026C90.0262 10.026 89.9749 10.0333 89.9441 10.0406V10.3888Z" fill="#2C6F76"/>
<path d="M38.7655 22.9953C38.9457 22.9631 39.2871 22.9148 39.8893 22.9148C41.0292 22.9309 41.712 23.4342 41.712 24.4422C41.712 25.4004 40.9794 26.0193 39.7413 26.0193H38.764V22.9953H38.7655ZM36.3082 32.1156H38.7655V27.8071H39.5157C40.5237 27.8232 40.997 28.1977 41.2901 29.5627C41.6153 30.913 41.8762 31.8069 42.0549 32.1156H44.5956C44.3846 31.6928 44.0418 30.262 43.7004 29.0272C43.4234 28.0192 43.0015 27.2877 42.2351 26.979V26.9293C43.1788 26.5884 44.1722 25.6287 44.1722 24.2315C44.1722 23.2235 43.8132 22.4598 43.1626 21.939C42.3817 21.3216 41.2417 21.0773 39.6138 21.0773C38.2951 21.0773 37.1068 21.1753 36.3082 21.3055V32.1156ZM31.6693 32.1156H34.1602V21.1592H31.6693V32.1156ZM24.7651 30.3263C23.105 30.3263 22.094 28.7331 22.1115 26.6527C22.1115 24.6046 23.0889 22.947 24.7827 22.947C26.475 22.947 27.4186 24.606 27.4186 26.6045C27.4186 28.7507 26.4413 30.3263 24.7651 30.3263ZM30.0883 32.0819C29.2253 31.9035 28.2817 31.7074 27.4348 31.4646V31.3987C28.8839 30.7491 30.04 28.9921 30.04 26.5064C30.04 23.5161 28.2011 20.9792 24.8471 20.9792C21.5753 20.9792 19.4902 23.4502 19.4902 26.7332C19.4902 30.3088 21.8024 32.1302 24.2772 32.2926C24.538 32.3087 24.7973 32.357 25.042 32.455C26.5073 33.0724 27.8099 33.5435 29.3733 33.9985L30.0883 32.0819Z" fill="#2C6F77"/>
</svg>
